<svg width="100" height="100" viewBox="0 0 100 100" fill="none" xmlns="http://www.w3.org/2000/svg">
<rect width="100" height="100" fill="white"/>
<path d="M86.0001 23.0002H33.8652C32.6831 23 31.5125 23.2327 30.4204 23.6851C29.3284 24.1376 28.3361 24.8008 27.5005 25.6369L6.31835 46.8177C4.56055 48.5755 4.56055 51.4245 6.31835 53.1809L27.5005 74.3631C29.188 76.0506 31.4774 76.9998 33.8638 76.9998H86.0001C90.9711 76.9998 95 72.9709 95 67.9999V32.0001C95 27.0291 90.9711 23.0002 86.0001 23.0002ZM74.0906 58.7271C74.9695 59.606 74.9695 61.0305 74.0906 61.9094L70.9097 65.0904C70.0308 65.9693 68.6063 65.9693 67.7274 65.0904L59.0003 56.3632L50.2732 65.0904C49.3943 65.9693 47.9697 65.9693 47.0908 65.0904L43.9099 61.9094C43.031 61.0305 43.031 59.606 43.9099 58.7271L52.6371 50L43.9099 41.2729C43.031 40.394 43.031 38.9695 43.9099 38.0906L47.0908 34.9097C47.9697 34.0308 49.3943 34.0308 50.2732 34.9097L59.0003 43.6368L67.7274 34.9097C68.6063 34.0308 70.0308 34.0308 70.9097 34.9097L74.0906 38.0906C74.9695 38.9695 74.9695 40.394 74.0906 41.2729L65.3635 50L74.0906 58.7271Z" fill="black"/>
</svg>
