<svg width="90" height="54" viewBox="0 0 90 54" fill="none" xmlns="http://www.w3.org/2000/svg">
<path d="M81.0001 0.000213802H28.8652C27.6831 -2.20109e-05 26.5125 0.232724 25.4204 0.685146C24.3284 1.13757 23.3361 1.8008 22.5005 2.63691L1.31835 23.8177C-0.43945 25.5755 -0.43945 28.4245 1.31835 30.1809L22.5005 51.3631C24.188 53.0506 26.4774 53.9998 28.8638 53.9998H81.0001C85.9711 53.9998 90 49.9709 90 44.9999V9.00014C90 4.02909 85.9711 0.000213802 81.0001 0.000213802ZM69.0906 35.7271C69.9695 36.606 69.9695 38.0305 69.0906 38.9094L65.9097 42.0904C65.0308 42.9693 63.6063 42.9693 62.7274 42.0904L54.0003 33.3632L45.2732 42.0904C44.3943 42.9693 42.9697 42.9693 42.0908 42.0904L38.9099 38.9094C38.031 38.0305 38.031 36.606 38.9099 35.7271L47.6371 27L38.9099 18.2729C38.031 17.394 38.031 15.9695 38.9099 15.0906L42.0908 11.9097C42.9697 11.0308 44.3943 11.0308 45.2732 11.9097L54.0003 20.6368L62.7274 11.9097C63.6063 11.0308 65.0308 11.0308 65.9097 11.9097L69.0906 15.0906C69.9695 15.9695 69.9695 17.394 69.0906 18.2729L60.3635 27L69.0906 35.7271Z" fill="white"/>
</svg>
